<?xml version="1.0" encoding="UTF-8" standalone="no"?>
<!-- Created with Inkscape (http://www.inkscape.org/) -->

<svg
   xmlns:dc="http://purl.org/dc/elements/1.1/"
   xmlns:cc="http://creativecommons.org/ns#"
   xmlns:rdf="http://www.w3.org/1999/02/22-rdf-syntax-ns#"
   xmlns:svg="http://www.w3.org/2000/svg"
   xmlns="http://www.w3.org/2000/svg"
   xmlns:xlink="http://www.w3.org/1999/xlink"
   xmlns:sodipodi="http://sodipodi.sourceforge.net/DTD/sodipodi-0.dtd"
   xmlns:inkscape="http://www.inkscape.org/namespaces/inkscape"
   height="1100.0000"
   id="svg2"
   inkscape:version="0.48.3.1 r9886"
   sodipodi:docname="AJ_balloon_blue.svg"
   sodipodi:version="0.32"
   version="1.0"
   width="600.00000"
   x="0.00000000"
   y="0.00000000">
  <metadata
     id="metadata4472">
    <rdf:RDF>
      <cc:Work
         rdf:about="">
        <dc:title></dc:title>
        <dc:description />
        <dc:subject>
          <rdf:Bag>
            <rdf:li />
            <rdf:li>balloons</rdf:li>
            <rdf:li>festive</rdf:li>
            <rdf:li>party</rdf:li>
            <rdf:li>recreation</rdf:li>
          </rdf:Bag>
        </dc:subject>
        <dc:publisher>
          <cc:Agent
             rdf:about="http://www.openclipart.org">
            <dc:title>AJ Ashton</dc:title>
          </cc:Agent>
        </dc:publisher>
        <dc:creator>
          <cc:Agent>
            <dc:title>AJ Ashton</dc:title>
          </cc:Agent>
        </dc:creator>
        <dc:rights>
          <cc:Agent>
            <dc:title>AJ Ashton</dc:title>
          </cc:Agent>
        </dc:rights>
        <dc:date />
        <dc:format>image/svg+xml</dc:format>
        <dc:type
           rdf:resource="http://purl.org/dc/dcmitype/StillImage" />
        <cc:license
           rdf:resource="http://web.resource.org/cc/PublicDomain" />
        <dc:language>en</dc:language>
      </cc:Work>
      <cc:License
         rdf:about="http://web.resource.org/cc/PublicDomain">
        <cc:permits
           rdf:resource="http://web.resource.org/cc/Reproduction" />
        <cc:permits
           rdf:resource="http://web.resource.org/cc/Distribution" />
        <cc:permits
           rdf:resource="http://web.resource.org/cc/DerivativeWorks" />
      </cc:License>
    </rdf:RDF>
  </metadata>
  <sodipodi:namedview
     bordercolor="#666666"
     borderopacity="1.0"
     id="base"
     inkscape:current-layer="svg2"
     inkscape:cx="560.21516"
     inkscape:cy="578.69486"
     inkscape:pageopacity="0.0"
     inkscape:pageshadow="2"
     inkscape:window-height="937"
     inkscape:window-width="1280"
     inkscape:window-x="0"
     inkscape:window-y="27"
     inkscape:zoom="0.65818182"
     pagecolor="#ffffff"
     showgrid="false"
     inkscape:window-maximized="1" />
  <defs
     id="defs3">
    <linearGradient
       id="linearGradient2201">
      <stop
         id="stop2203"
         offset="0.00000000"
         style="stop-color:#525252;stop-opacity:1.0000000;" />
      <stop
         id="stop2205"
         offset="1.0000000"
         style="stop-color:#d9d9d9;stop-opacity:1.0000000;" />
    </linearGradient>
    <linearGradient
       id="linearGradient2188">
      <stop
         id="stop2190"
         offset="0.00000000"
         style="stop-color:#00f1ff;stop-opacity:0.00000000;" />
      <stop
         id="stop2194"
         offset="0.50000000"
         style="stop-color:#00c9ff;stop-opacity:0.00000000;" />
      <stop
         id="stop2196"
         offset="0.75000000"
         style="stop-color:#0065a6;stop-opacity:0.00000000;" />
      <stop
         id="stop2192"
         offset="1.0000000"
         style="stop-color:#002454;stop-opacity:1.0000000;" />
    </linearGradient>
    <linearGradient
       id="linearGradient2168">
      <stop
         id="stop2170"
         offset="0.00000000"
         style="stop-color:#000000;stop-opacity:1.0000000;" />
      <stop
         id="stop2174"
         offset="1.0000000"
         style="stop-color:#000000;stop-opacity:0.00000000;" />
    </linearGradient>
    <linearGradient
       id="linearGradient2077">
      <stop
         id="stop2079"
         offset="0.00000000"
         style="stop-color:#ffffff;stop-opacity:1.0000000;" />
      <stop
         id="stop2081"
         offset="1.0000000"
         style="stop-color:#ffffff;stop-opacity:0.00000000;" />
    </linearGradient>
    <linearGradient
       id="linearGradient2065">
      <stop
         id="stop2067"
         offset="0.00000000"
         style="stop-color:#00575f;stop-opacity:0.00000000;" />
      <stop
         id="stop2073"
         offset="0.50000000"
         style="stop-color:#0062ff;stop-opacity:0.00000000;" />
      <stop
         id="stop2069"
         offset="1.0000000"
         style="stop-color:#002859;stop-opacity:1.0000000;" />
    </linearGradient>
    <linearGradient
       id="linearGradient2053">
      <stop
         id="stop2055"
         offset="0.00000000"
         style="stop-color:#34abff;stop-opacity:1.0000000;" />
      <stop
         id="stop2057"
         offset="1.0000000"
         style="stop-color:#0057ff;stop-opacity:1.0000000;" />
    </linearGradient>
    <radialGradient
       cx="462.46451"
       cy="233.67064"
       fx="462.46451"
       fy="233.67064"
       gradientTransform="scale(0.991893,1.008174)"
       gradientUnits="userSpaceOnUse"
       id="radialGradient2061"
       r="330.32794"
       xlink:href="#linearGradient2053" />
    <radialGradient
       cx="478.65665"
       cy="290.04428"
       fx="478.65665"
       fy="290.04428"
       gradientTransform="scale(0.991893,1.008174)"
       gradientUnits="userSpaceOnUse"
       id="radialGradient2071"
       r="372.48581"
       xlink:href="#linearGradient2065" />
    <linearGradient
       gradientTransform="scale(1.212383,0.824822)"
       gradientUnits="userSpaceOnUse"
       id="linearGradient2083"
       x1="350.37308"
       x2="285.90225"
       xlink:href="#linearGradient2077"
       y1="168.42853"
       y2="601.16229" />
    <radialGradient
       cx="457.14285"
       cy="263.79074"
       fx="457.14285"
       fy="263.79074"
       gradientUnits="userSpaceOnUse"
       id="radialGradient2093"
       r="94.285713"
       xlink:href="#linearGradient2077" />
    <radialGradient
       cx="457.14285"
       cy="263.79074"
       fx="457.14285"
       fy="263.79074"
       gradientUnits="userSpaceOnUse"
       id="radialGradient2097"
       r="94.285713"
       xlink:href="#linearGradient2077" />
    <linearGradient
       gradientTransform="scale(0.851586,1.174280)"
       gradientUnits="userSpaceOnUse"
       id="linearGradient2148"
       x1="-683.49762"
       x2="1100.7120"
       xlink:href="#linearGradient2065"
       y1="-283.38879"
       y2="504.57803" />
    <radialGradient
       cx="480.13391"
       cy="516.86877"
       fx="480.13391"
       fy="516.86877"
       gradientTransform="scale(0.839953,1.190542)"
       gradientUnits="userSpaceOnUse"
       id="radialGradient2154"
       r="175.43748"
       xlink:href="#linearGradient2077" />
    <radialGradient
       cx="480.13391"
       cy="516.86877"
       fx="480.13391"
       fy="516.86877"
       gradientTransform="scale(0.839953,1.190542)"
       gradientUnits="userSpaceOnUse"
       id="radialGradient2156"
       r="175.43748"
       xlink:href="#linearGradient2077" />
    <linearGradient
       gradientTransform="scale(1.260163,0.793548)"
       gradientUnits="userSpaceOnUse"
       id="linearGradient2166"
       x1="336.15353"
       x2="345.40002"
       xlink:href="#linearGradient2168"
       y1="1203.6084"
       y2="608.36353" />
    <radialGradient
       cx="413.88809"
       cy="440.37405"
       fx="413.88809"
       fy="440.37405"
       gradientTransform="scale(0.991893,1.008174)"
       gradientUnits="userSpaceOnUse"
       id="radialGradient2186"
       r="359.53452"
       xlink:href="#linearGradient2188" />
    <radialGradient
       cx="462.46451"
       cy="233.67064"
       fx="462.46451"
       fy="233.67064"
       gradientTransform="scale(0.991893,1.008174)"
       gradientUnits="userSpaceOnUse"
       id="radialGradient2211"
       r="330.32794"
       xlink:href="#linearGradient2053" />
    <radialGradient
       cx="478.65665"
       cy="290.04428"
       fx="478.65665"
       fy="290.04428"
       gradientTransform="scale(0.991893,1.008174)"
       gradientUnits="userSpaceOnUse"
       id="radialGradient2213"
       r="372.48581"
       xlink:href="#linearGradient2065" />
    <linearGradient
       gradientTransform="scale(1.212383,0.824822)"
       gradientUnits="userSpaceOnUse"
       id="linearGradient2215"
       x1="350.37308"
       x2="285.90225"
       xlink:href="#linearGradient2077"
       y1="168.42853"
       y2="601.16229" />
    <radialGradient
       cx="457.14285"
       cy="263.79074"
       fx="457.14285"
       fy="263.79074"
       gradientUnits="userSpaceOnUse"
       id="radialGradient2217"
       r="94.285713"
       xlink:href="#linearGradient2077" />
    <radialGradient
       cx="457.14285"
       cy="263.79074"
       fx="457.14285"
       fy="263.79074"
       gradientUnits="userSpaceOnUse"
       id="radialGradient2219"
       r="94.285713"
       xlink:href="#linearGradient2077" />
    <linearGradient
       gradientTransform="scale(0.851586,1.174280)"
       gradientUnits="userSpaceOnUse"
       id="linearGradient2221"
       x1="-683.49762"
       x2="1100.7120"
       xlink:href="#linearGradient2065"
       y1="-283.38879"
       y2="504.57803" />
    <radialGradient
       cx="480.13391"
       cy="516.86877"
       fx="480.13391"
       fy="516.86877"
       gradientTransform="scale(0.839953,1.190542)"
       gradientUnits="userSpaceOnUse"
       id="radialGradient2223"
       r="175.43748"
       xlink:href="#linearGradient2077" />
    <radialGradient
       cx="480.13391"
       cy="516.86877"
       fx="480.13391"
       fy="516.86877"
       gradientTransform="scale(0.839953,1.190542)"
       gradientUnits="userSpaceOnUse"
       id="radialGradient2225"
       r="175.43748"
       xlink:href="#linearGradient2077" />
    <linearGradient
       gradientTransform="scale(1.260163,0.793548)"
       gradientUnits="userSpaceOnUse"
       id="linearGradient2227"
       x1="336.15353"
       x2="345.40002"
       xlink:href="#linearGradient2168"
       y1="1203.6084"
       y2="608.36353" />
    <radialGradient
       cx="413.88809"
       cy="440.37405"
       fx="413.88809"
       fy="440.37405"
       gradientTransform="scale(0.991893,1.008174)"
       gradientUnits="userSpaceOnUse"
       id="radialGradient2229"
       r="359.53452"
       xlink:href="#linearGradient2188" />
    <radialGradient
       cx="413.88809"
       cy="440.37405"
       fx="413.88809"
       fy="440.37405"
       gradientTransform="matrix(0.968306,-0.215026,0.296519,1.335288,-211.5998,-61.66705)"
       gradientUnits="userSpaceOnUse"
       id="radialGradient2232"
       r="359.53452"
       xlink:href="#linearGradient2188" />
    <linearGradient
       gradientTransform="matrix(1.230196,-0.273182,0.172028,0.774677,-201.8059,-17.5629)"
       gradientUnits="userSpaceOnUse"
       id="linearGradient2235"
       x1="336.15353"
       x2="345.40002"
       xlink:href="#linearGradient2168"
       y1="1203.6084"
       y2="608.36353" />
    <linearGradient
       gradientTransform="matrix(0.831335,-0.184609,0.254564,1.146356,-201.8059,-17.5629)"
       gradientUnits="userSpaceOnUse"
       id="linearGradient2241"
       x1="-683.49762"
       x2="1100.7120"
       xlink:href="#linearGradient2065"
       y1="-283.38879"
       y2="504.57803" />
    <linearGradient
       gradientTransform="matrix(1.183553,-0.262824,0.178807,0.805208,-201.8059,-17.5629)"
       gradientUnits="userSpaceOnUse"
       id="linearGradient2246"
       x1="350.37308"
       x2="285.90225"
       xlink:href="#linearGradient2077"
       y1="168.42853"
       y2="601.16229" />
    <radialGradient
       cx="478.65665"
       cy="290.04428"
       fx="478.65665"
       fy="290.04428"
       gradientTransform="matrix(0.968306,-0.215026,0.296519,1.335288,-211.5998,-61.66705)"
       gradientUnits="userSpaceOnUse"
       id="radialGradient2249"
       r="372.48581"
       xlink:href="#linearGradient2065" />
    <radialGradient
       cx="462.46451"
       cy="233.67064"
       fx="462.46451"
       fy="233.67064"
       gradientTransform="matrix(0.968306,-0.215026,0.296519,1.335288,-211.5998,-61.66705)"
       gradientUnits="userSpaceOnUse"
       id="radialGradient2252"
       r="330.32794"
       xlink:href="#linearGradient2053" />
    <linearGradient
       gradientTransform="matrix(1.219083,0,0,0.820289,0,-6)"
       gradientUnits="userSpaceOnUse"
       id="linearGradient2122"
       x1="309.15680"
       x2="302.30682"
       xlink:href="#linearGradient2053"
       y1="900.83911"
       y2="958.59302" />
    <linearGradient
       gradientTransform="matrix(1.219083,0,0,0.820289,0,-6)"
       gradientUnits="userSpaceOnUse"
       id="linearGradient2126"
       x1="299.34467"
       x2="301.38113"
       xlink:href="#linearGradient2168"
       y1="959.68787"
       y2="945.18097" />
    <linearGradient
       gradientTransform="matrix(1.219083,0,0,0.820289,0,-6)"
       gradientUnits="userSpaceOnUse"
       id="linearGradient2140"
       x1="293.05011"
       x2="311.93381"
       xlink:href="#linearGradient2168"
       y1="901.66022"
       y2="937.79065" />
    <linearGradient
       gradientTransform="matrix(1.219083,0,0,0.820289,0,-6)"
       gradientUnits="userSpaceOnUse"
       id="linearGradient2144"
       x1="293.23529"
       x2="310.45273"
       xlink:href="#linearGradient2168"
       y1="923.83136"
       y2="927.11578" />
    <radialGradient
       cx="214.76448"
       cy="1378.8025"
       fx="214.76448"
       fy="1378.8025"
       gradientTransform="matrix(1.468627,0,0,0.425261,72.66462,179.8293)"
       gradientUnits="userSpaceOnUse"
       id="radialGradient2155"
       r="15.405808"
       xlink:href="#linearGradient2077" />
    <radialGradient
       cx="378.57144"
       cy="752.36218"
       fx="378.57144"
       fy="752.36218"
       gradientUnits="userSpaceOnUse"
       id="radialGradient2169"
       r="8.5714283"
       xlink:href="#linearGradient2077" />
    <radialGradient
       cx="269.78928"
       cy="1031.8398"
       fx="269.78928"
       fy="1031.8398"
       gradientTransform="scale(1.392621,0.71807)"
       gradientUnits="userSpaceOnUse"
       id="radialGradient2179"
       r="32.826073"
       xlink:href="#linearGradient2168" />
    <linearGradient
       gradientTransform="matrix(0.366177,0,0,2.73092,0,-6)"
       gradientUnits="userSpaceOnUse"
       id="linearGradient2199"
       spreadMethod="pad"
       x1="1062.9684"
       x2="1074.9819"
       xlink:href="#linearGradient2201"
       y1="281.09448"
       y2="396.19681" />
    <radialGradient
       cx="370.70612"
       cy="771.54883"
       fx="370.70612"
       fy="771.54883"
       gradientTransform="matrix(1.015364,0,0,0.984868,0,-6)"
       gradientUnits="userSpaceOnUse"
       id="radialGradient2242"
       r="27.479855"
       xlink:href="#linearGradient2201" />
    <linearGradient
       gradientTransform="matrix(0.822094,0,0,1.216406,0,-6)"
       gradientUnits="userSpaceOnUse"
       id="linearGradient2256"
       spreadMethod="reflect"
       x1="423.76266"
       x2="448.11847"
       xlink:href="#linearGradient2201"
       y1="614.40485"
       y2="654.13196" />
    <linearGradient
       gradientTransform="matrix(0.64452,0,0,1.551543,0,-6)"
       gradientUnits="userSpaceOnUse"
       id="linearGradient2264"
       spreadMethod="reflect"
       x1="608.26611"
       x2="572.03137"
       xlink:href="#linearGradient2201"
       y1="588.04816"
       y2="590.56244" />
    <linearGradient
       gradientTransform="scale(0.813920,1.228622)"
       gradientUnits="userSpaceOnUse"
       id="linearGradient2292"
       spreadMethod="reflect"
       x1="469.01181"
       x2="491.66272"
       xlink:href="#linearGradient2201"
       y1="838.20184"
       y2="843.22455" />
    <linearGradient
       gradientTransform="scale(0.813920,1.228622)"
       gradientUnits="userSpaceOnUse"
       id="linearGradient2296"
       spreadMethod="pad"
       x1="496.76105"
       x2="471.41708"
       xlink:href="#linearGradient2168"
       y1="858.87988"
       y2="822.28503" />
    <linearGradient
       gradientTransform="scale(1.803759,0.554398)"
       gradientUnits="userSpaceOnUse"
       id="linearGradient2314"
       x1="194.76213"
       x2="197.19901"
       xlink:href="#linearGradient2168"
       y1="1854.4941"
       y2="1846.9741" />
    <linearGradient
       gradientTransform="matrix(0.81392,0,0,1.228622,0,-6)"
       gradientUnits="userSpaceOnUse"
       id="linearGradient2317"
       spreadMethod="reflect"
       x1="469.01181"
       x2="491.66272"
       xlink:href="#linearGradient2201"
       y1="838.20184"
       y2="843.22455" />
    <linearGradient
       gradientTransform="matrix(0.81392,0,0,1.228622,0,-6)"
       gradientUnits="userSpaceOnUse"
       id="linearGradient2321"
       spreadMethod="pad"
       x1="432.33322"
       x2="442.93881"
       xlink:href="#linearGradient2168"
       y1="816.66492"
       y2="835.01398" />
    <linearGradient
       gradientTransform="scale(1.015364,0.984868)"
       gradientUnits="userSpaceOnUse"
       id="linearGradient2327"
       spreadMethod="reflect"
       x1="370.79483"
       x2="381.52863"
       xlink:href="#linearGradient2168"
       y1="747.38092"
       y2="754.62958" />
    <radialGradient
       cx="247.70894"
       cy="1161.0876"
       fx="247.70892"
       fy="1161.4192"
       gradientTransform="scale(1.580391,0.632755)"
       gradientUnits="userSpaceOnUse"
       id="radialGradient2333"
       r="14.647120"
       xlink:href="#linearGradient2168" />
    <linearGradient
       gradientTransform="scale(1.020002,0.980390)"
       gradientUnits="userSpaceOnUse"
       id="linearGradient2371"
       x1="-328.79410"
       x2="-124.78329"
       xlink:href="#linearGradient2188"
       y1="53.521339"
       y2="53.521339" />
    <linearGradient
       gradientTransform="matrix(1.135718,0.000000,0.000000,0.880500,139.9897,52.49610)"
       gradientUnits="userSpaceOnUse"
       id="linearGradient2381"
       x1="-633.96027"
       x2="-186.16292"
       xlink:href="#linearGradient2188"
       y1="32.449062"
       y2="32.449062" />
    <radialGradient
       inkscape:collect="always"
       xlink:href="#linearGradient2168"
       id="radialGradient4570"
       gradientUnits="userSpaceOnUse"
       gradientTransform="scale(1.580391,0.632755)"
       cx="247.70894"
       cy="1161.0876"
       fx="247.70892"
       fy="1161.4192"
       r="14.647120" />
    <linearGradient
       inkscape:collect="always"
       xlink:href="#linearGradient2201"
       id="linearGradient4573"
       gradientUnits="userSpaceOnUse"
       gradientTransform="matrix(0.822094,0,0,1.216406,0,-6)"
       spreadMethod="reflect"
       x1="423.76266"
       y1="614.40485"
       x2="448.11847"
       y2="654.13196" />
    <linearGradient
       inkscape:collect="always"
       xlink:href="#linearGradient2168"
       id="linearGradient4576"
       gradientUnits="userSpaceOnUse"
       gradientTransform="scale(1.015364,0.984868)"
       spreadMethod="reflect"
       x1="370.79483"
       y1="747.38092"
       x2="381.52863"
       y2="754.62958" />
    <linearGradient
       inkscape:collect="always"
       xlink:href="#linearGradient2168"
       id="linearGradient4579"
       gradientUnits="userSpaceOnUse"
       gradientTransform="matrix(0.81392,0,0,1.228622,0,-6)"
       spreadMethod="pad"
       x1="432.33322"
       y1="816.66492"
       x2="442.93881"
       y2="835.01398" />
    <linearGradient
       inkscape:collect="always"
       xlink:href="#linearGradient2201"
       id="linearGradient4582"
       gradientUnits="userSpaceOnUse"
       gradientTransform="matrix(0.81392,0,0,1.228622,0,-6)"
       spreadMethod="reflect"
       x1="469.01181"
       y1="838.20184"
       x2="491.66272"
       y2="843.22455" />
    <linearGradient
       inkscape:collect="always"
       xlink:href="#linearGradient2201"
       id="linearGradient4585"
       gradientUnits="userSpaceOnUse"
       gradientTransform="matrix(0.64452,0,0,1.551543,0,-6)"
       spreadMethod="reflect"
       x1="608.26611"
       y1="588.04816"
       x2="572.03137"
       y2="590.56244" />
    <radialGradient
       inkscape:collect="always"
       xlink:href="#linearGradient2201"
       id="radialGradient4588"
       gradientUnits="userSpaceOnUse"
       gradientTransform="matrix(1.015364,0,0,0.984868,0,-6)"
       cx="370.70612"
       cy="771.54883"
       fx="370.70612"
       fy="771.54883"
       r="27.479855" />
    <radialGradient
       inkscape:collect="always"
       xlink:href="#linearGradient2077"
       id="radialGradient4591"
       gradientUnits="userSpaceOnUse"
       cx="378.57144"
       cy="752.36218"
       fx="378.57144"
       fy="752.36218"
       r="8.5714283"
       gradientTransform="matrix(0.468704,-0.171608,0.343813,0.939038,-50.6841,103.7345)" />
    <radialGradient
       inkscape:collect="always"
       xlink:href="#linearGradient2077"
       id="radialGradient4594"
       gradientUnits="userSpaceOnUse"
       gradientTransform="matrix(1.468627,0,0,0.425261,72.66462,179.8293)"
       cx="214.76448"
       cy="1378.8025"
       fx="214.76448"
       fy="1378.8025"
       r="15.405808" />
    <linearGradient
       inkscape:collect="always"
       xlink:href="#linearGradient2168"
       id="linearGradient4597"
       gradientUnits="userSpaceOnUse"
       gradientTransform="matrix(1.219083,0,0,0.820289,0,-6)"
       x1="293.23529"
       y1="923.83136"
       x2="310.45273"
       y2="927.11578" />
    <linearGradient
       inkscape:collect="always"
       xlink:href="#linearGradient2168"
       id="linearGradient4600"
       gradientUnits="userSpaceOnUse"
       gradientTransform="matrix(1.219083,0,0,0.820289,0,-6)"
       x1="293.05011"
       y1="901.66022"
       x2="311.93381"
       y2="937.79065" />
    <linearGradient
       inkscape:collect="always"
       xlink:href="#linearGradient2168"
       id="linearGradient4603"
       gradientUnits="userSpaceOnUse"
       gradientTransform="matrix(1.219083,0,0,0.820289,0,-6)"
       x1="299.34467"
       y1="959.68787"
       x2="301.38113"
       y2="945.18097" />
    <linearGradient
       inkscape:collect="always"
       xlink:href="#linearGradient2053"
       id="linearGradient4606"
       gradientUnits="userSpaceOnUse"
       gradientTransform="matrix(1.219083,0,0,0.820289,0,-6)"
       x1="309.15680"
       y1="900.83911"
       x2="302.30682"
       y2="958.59302" />
    <radialGradient
       inkscape:collect="always"
       xlink:href="#linearGradient2168"
       id="radialGradient4609"
       gradientUnits="userSpaceOnUse"
       gradientTransform="matrix(1.3308917,-0.20558289,0.10260933,0.4715817,-91.36538,302.3721)"
       cx="269.78928"
       cy="1031.8398"
       fx="269.78928"
       fy="1031.8398"
       r="32.826073" />
    <radialGradient
       inkscape:collect="always"
       xlink:href="#linearGradient2188"
       id="radialGradient4612"
       gradientUnits="userSpaceOnUse"
       gradientTransform="matrix(0.968306,-0.215026,0.296519,1.335288,-211.5998,-61.66705)"
       cx="413.88809"
       cy="440.37405"
       fx="413.88809"
       fy="440.37405"
       r="359.53452" />
    <linearGradient
       inkscape:collect="always"
       xlink:href="#linearGradient2168"
       id="linearGradient4615"
       gradientUnits="userSpaceOnUse"
       gradientTransform="matrix(1.230196,-0.273182,0.172028,0.774677,-201.8059,-17.5629)"
       x1="336.15353"
       y1="1203.6084"
       x2="345.40002"
       y2="608.36353" />
    <radialGradient
       inkscape:collect="always"
       xlink:href="#linearGradient2077"
       id="radialGradient4618"
       gradientUnits="userSpaceOnUse"
       gradientTransform="matrix(0.41814456,-0.27522152,0.3667036,0.55713199,-79.09553,415.2735)"
       cx="480.13391"
       cy="516.86877"
       fx="480.13391"
       fy="516.86877"
       r="175.43748" />
    <radialGradient
       inkscape:collect="always"
       xlink:href="#linearGradient2077"
       id="radialGradient4621"
       gradientUnits="userSpaceOnUse"
       gradientTransform="matrix(0.70161358,-0.46180112,0.65455285,0.99446092,-404.3723,218.1777)"
       cx="480.13391"
       cy="516.86877"
       fx="480.13391"
       fy="516.86877"
       r="175.43748" />
    <linearGradient
       inkscape:collect="always"
       xlink:href="#linearGradient2065"
       id="linearGradient4624"
       gradientUnits="userSpaceOnUse"
       gradientTransform="matrix(0.831335,-0.184609,0.254564,1.146356,-201.8059,-17.5629)"
       x1="-683.49762"
       y1="-283.38879"
       x2="1100.7120"
       y2="504.57803" />
    <radialGradient
       inkscape:collect="always"
       xlink:href="#linearGradient2077"
       id="radialGradient4627"
       gradientUnits="userSpaceOnUse"
       cx="457.14285"
       cy="263.79074"
       fx="457.14285"
       fy="263.79074"
       r="94.285713"
       gradientTransform="matrix(1.183298,-0.262767,0.262767,1.183298,-308.5998,-51.16643)" />
    <radialGradient
       inkscape:collect="always"
       xlink:href="#linearGradient2077"
       id="radialGradient4630"
       gradientUnits="userSpaceOnUse"
       cx="457.14285"
       cy="263.79074"
       fx="457.14285"
       fy="263.79074"
       r="94.285713"
       gradientTransform="matrix(0.414155,-0.09196867,0.09196867,0.414155,88.06354,73.64696)" />
    <linearGradient
       inkscape:collect="always"
       xlink:href="#linearGradient2077"
       id="linearGradient4633"
       gradientUnits="userSpaceOnUse"
       gradientTransform="matrix(1.183553,-0.262824,0.178807,0.805208,-201.8059,-17.5629)"
       x1="350.37308"
       y1="168.42853"
       x2="285.90225"
       y2="601.16229" />
    <radialGradient
       inkscape:collect="always"
       xlink:href="#linearGradient2065"
       id="radialGradient4636"
       gradientUnits="userSpaceOnUse"
       gradientTransform="matrix(0.968306,-0.215026,0.296519,1.335288,-211.5998,-61.66705)"
       cx="478.65665"
       cy="290.04428"
       fx="478.65665"
       fy="290.04428"
       r="372.48581" />
    <radialGradient
       inkscape:collect="always"
       xlink:href="#linearGradient2053"
       id="radialGradient4639"
       gradientUnits="userSpaceOnUse"
       gradientTransform="matrix(0.968306,-0.215026,0.296519,1.335288,-211.5998,-61.66705)"
       cx="462.46451"
       cy="233.67064"
       fx="462.46451"
       fy="233.67064"
       r="330.32794" />
    <linearGradient
       inkscape:collect="always"
       xlink:href="#linearGradient2201"
       id="linearGradient4642"
       gradientUnits="userSpaceOnUse"
       gradientTransform="matrix(0.366177,0,0,2.73092,0,-6)"
       spreadMethod="pad"
       x1="1062.9684"
       y1="281.09448"
       x2="1074.9819"
       y2="396.19681" />
  </defs>
  <path
     inkscape:connector-curvature="0"
     style="opacity:0.75;fill:url(#radialGradient4639);fill-opacity:1;fill-rule:evenodd;stroke:none"
     id="path1291"
     d="M 558.5377,282.82738 C 598.1979,461.42541 490.5907,722.29347 383.99325,748.89164 280.18499,774.87042 68.24992,579.1076 28.58977,400.50957 -11.07038,221.91155 75.45001,50.601605 221.71565,18.12132 367.9813,-14.358967 518.8776,104.22936 558.5377,282.82738 z" />
  <path
     inkscape:connector-curvature="0"
     style="fill:url(#radialGradient4636);fill-opacity:1;fill-rule:evenodd;stroke:none"
     id="path2063"
     d="M 558.53773,282.82738 C 598.19788,461.42541 490.59072,722.29347 383.99325,748.89164 280.18499,774.87042 68.249916,579.1076 28.589767,400.50957 -11.070379,221.91155 75.450014,50.601605 221.71565,18.12132 367.9813,-14.358967 518.87759,104.22936 558.53773,282.82738 z" />
  <path
     inkscape:connector-curvature="0"
     style="opacity:0.6;fill:url(#linearGradient4633);fill-opacity:1;fill-rule:evenodd;stroke:none"
     id="path2075"
     d="m 171.19435,67.387925 c -12.1574,0.123781 -36.5156,19.763185 -45.86994,30.673245 -19.23391,22.43271 -30.837717,37.64959 -41.845958,61.97382 -16.900203,37.34331 4.574976,39.08376 32.847038,16.1198 21.59941,-17.54411 -12.85782,35.6029 -15.8121,47.41242 -4.933944,19.72314 -24.964174,31.74966 -34.405438,42.7611 -9.848033,11.48586 -7.246065,33.21299 -27.588283,47.10074 -22.197731,15.15451 18.254702,23.31475 29.746166,28.51536 18.361457,8.30972 -10.759559,46.53266 27.888018,20.14776 22.789567,-15.55855 16.769487,-31.54719 31.919957,-1.23478 4.99663,9.99704 47.58758,-37.13368 49.5902,-40.2796 2.33964,-3.67535 -3.85428,-56.89591 -4.63938,-60.43134 -0.0159,-0.0718 13.06056,-19.12393 28.82306,-15.18078 24.44972,6.11635 16.73923,28.76122 38.73712,3.10487 11.17647,-13.03524 25.82521,50.39768 26.3336,52.68709 7.29089,32.83242 48.78801,-4.8665 62.28948,3.72822 14.42102,9.18007 9.08421,39.31163 25.71422,49.8979 13.11922,8.35138 43.27771,-30.36328 47.42038,-36.87102 13.55646,-21.29591 0.68902,-23.51057 38.11774,0.31566 26.36268,16.78184 22.40623,-31.9733 58.26152,-1.2308 21.82045,18.70897 6.77018,-20.07642 7.13283,-33.7781 0.61195,-23.12154 -11.94239,-57.19073 -20.13185,-77.47822 -4.63447,-11.48084 44.37319,16.12365 36.5673,6.51344 -14.23783,-17.52891 -32.69437,-32.14504 -45.858,-48.35144 -17.055,-20.99726 -24.40461,-34.87793 -36.55934,-59.19656 -10.50141,-21.010745 -5.94652,-25.339661 -22.61731,-35.951899 -17.60285,-11.205546 -33.64759,17.927872 -44.93491,-4.655304 -7.85116,-15.708252 -37.86897,9.422372 -52.68312,-0.008 -4.17168,-2.655592 -16.65582,-32.665695 -19.82812,-36.571281 -6.98218,-8.596111 -42.54232,3.593627 -54.23355,6.189825 -3.71894,0.825841 -7.43787,1.651681 -11.15681,2.477522 -12.79632,2.841598 -28.61106,3.426727 -42.45738,6.501492 -1.00717,0.223655 -12.54577,19.486054 -20.76714,25.098819 z" />
  <path
     inkscape:connector-curvature="0"
     style="fill:url(#radialGradient4630);fill-opacity:1;fill-rule:evenodd;stroke:none"
     id="path2085"
     d="m 340.70092,132.18306 a 40.000108,40.000108 0 1 1 -78.0978,17.34267 40.000108,40.000108 0 1 1 78.0978,-17.34267 z" />
  <path
     inkscape:connector-curvature="0"
     style="opacity:0.6;fill:url(#radialGradient4627);fill-opacity:1;fill-rule:evenodd;stroke:none"
     id="path2095"
     d="m 413.22003,116.07939 a 114.28582,114.28582 0 1 1 -223.1362,49.55035 114.28582,114.28582 0 1 1 223.1362,-49.55035 z" />
  <path
     inkscape:connector-curvature="0"
     style="opacity:0.4;fill:url(#linearGradient4624);fill-opacity:1;fill-rule:evenodd;stroke:none"
     id="path2125"
     d="M 221.72178,18.128537 C 75.456143,50.608821 -11.077829,221.89896 28.582305,400.49698 68.242442,579.09502 280.18914,774.86897 383.9974,748.89022 490.59487,722.29206 598.20791,461.40896 558.54774,282.81091 518.8876,104.21288 367.98743,-14.35175 221.72178,18.128537 z m -5.24443,5.358068 c 5.19988,-1.603927 11.04073,-2.42969 17.64967,-2.254766 19.36816,0.512615 32.66348,26.514051 38.09101,26.657701 20.47909,0.542022 30.72048,-19.316859 45.57521,-18.92369 18.57991,0.491757 21.1887,8.720846 32.84219,16.139168 10.82331,6.889866 24.28688,20.227835 38.73799,29.427052 11.8372,7.535279 32.71484,24.00185 47.10364,27.60135 13.50799,3.37917 31.70146,11.00219 34.6984,24.49806 6.33242,28.51621 -14.44817,21.3751 -14.89944,38.42495 -0.62,23.42547 41.67586,16.27683 48.03993,44.9356 6.57962,29.62946 -30.81634,41.32588 -22.0186,45.86391 0.17767,0.0916 72.1986,61.5273 30.99498,60.43678 -23.06677,-0.61051 -67.77833,-34.50402 -74.69763,-6.8446 -2.51445,10.05136 -25.86308,61.41313 -44.01567,39.06457 -38.87266,-47.85806 -17.13237,7.84114 -68.79507,6.47379 -17.01433,-0.45032 -14.75067,-19.04691 -14.25407,-37.80907 2.07211,-78.29055 -54.60929,-11.47094 -55.15909,-37.49664 -1.65879,-78.52086 6.57761,-10.145 -17.64668,-39.96872 -14.5934,-17.96667 -25.61401,-36.77456 -52.06315,-23.55499 -40.78224,20.38343 -6.40496,29.47604 -4.95051,56.70285 1.35241,25.31658 -31.74882,21.71515 -17.67557,39.04143 4.72493,5.81711 30.88217,53.18768 22.31629,47.73486 -3.40858,-2.16982 -6.84379,-4.35657 -10.25237,-6.52641 -36.7455,-23.3913 -37.03749,43.62877 -65.06173,-3.09431 C 89.250313,313.69177 90.035634,370.87241 60.815393,387.51314 49.639654,421.0235 45.443094,397.28448 41.61817,380.06003 38.162376,364.49785 41.123863,351.45394 37.289881,334.18874 31.035654,306.02463 53.061042,313.15829 66.100456,292.67463 73.687659,280.75588 102.35804,262.22896 75.417138,255.48941 61.26735,251.94969 37.905806,262.023 55.572931,245.26695 66.931323,234.49431 115.33123,194.87829 92.780268,175.54297 80.081813,164.65526 43.122738,133.87961 84.405618,124.71218 121.25427,116.52943 130.39431,115.6612 131.2042,85.061646 131.86368,60.144615 169.28413,74.167787 182.66561,53.146742 190.94632,40.138536 200.8777,28.298399 216.47735,23.486605 z" />
  <path
     inkscape:connector-curvature="0"
     style="opacity:0.52999998;fill:url(#radialGradient4621);fill-opacity:1;fill-rule:evenodd;stroke:none"
     id="path2099"
     d="M 401.7311,408.73427 A 232.85731,164.28582 56.647141 1 1 127.27504,589.38088 232.85731,164.28582 56.647141 0 1 401.7311,408.73427 z" />
  <path
     inkscape:connector-curvature="0"
     style="opacity:0.3;fill:url(#radialGradient4618);fill-opacity:1;fill-rule:evenodd;stroke:none"
     id="path2109"
     d="M 389.48612,510.8581 A 130.45486,97.910267 56.647046 1 1 225.917,618.5188 130.45486,97.910267 56.647046 0 1 389.48612,510.8581 z" />
  <path
     inkscape:connector-curvature="0"
     style="opacity:0.1;fill:url(#linearGradient4615);fill-opacity:1;fill-rule:evenodd;stroke:none"
     id="path2158"
     d="m 223.16443,647.35804 c -18.33547,-24.26181 -60.96692,-66.67932 -84.57,-101.25218 -13.36666,-19.57896 -23.25933,-50.6127 1.32235,-49.9621 37.2676,0.98637 32.96296,59.58347 31.55619,-7.00748 -0.0903,-4.27429 28.97829,44.92699 54.78256,4.39093 20.49078,-32.18905 27.58552,49.66761 31.54494,67.49771 1.54016,6.93566 35.92306,12.72554 49.96211,1.32234 35.29646,-28.66953 6.93294,34.37252 6.5667,48.21023 -0.89095,33.66244 73.16413,-41.60743 76.70346,-46.00632 32.96072,-40.96552 50.84525,-10.70606 72.75894,-45.13038 23.00621,-36.14057 48.39476,-65.38249 66.19224,-93.34062 14.0998,-22.14944 -23.01032,-31.22687 10.08733,-47.76944 25.05984,-12.52519 21.80045,45.5616 16.20762,54.3474 -13.63784,21.42375 -38.60825,14.17509 -39.45087,46.01195 -0.52715,19.91714 -0.87959,33.31696 4.37405,56.97522 4.69258,21.13167 -20.48176,53.45702 -30.25074,68.80316 -13.8276,21.72182 -3.48801,30.22847 -31.56183,44.26007 -19.25584,9.62429 -21.79228,50.29278 -39.45087,46.01194 -13.72194,11.14564 -36.20488,27.07939 -46.0232,35.05431 -18.36296,14.9153 -39.25844,-16.11635 -68.36801,-9.65217 -21.97327,4.87946 -45.83027,-9.48917 -58.2863,-20.16903 -11.99802,-10.28716 -20.75043,-37.52668 -24.09667,-52.59554 z" />
  <path
     inkscape:connector-curvature="0"
     style="fill:url(#radialGradient4612);fill-opacity:1;fill-rule:evenodd;stroke:none"
     id="path2180"
     d="M 558.53773,282.82738 C 598.19788,461.42541 490.59072,722.29347 383.99325,748.89164 280.18499,774.87042 68.249916,579.1076 28.589767,400.50957 -11.070379,221.91155 75.450014,50.601605 221.71565,18.12132 367.9813,-14.358967 518.87759,104.22936 558.53773,282.82738 z" />
  <path
     inkscape:connector-curvature="0"
     style="opacity:0.3;fill:url(#radialGradient4609);fill-opacity:1;fill-rule:evenodd;stroke:none"
     id="path2171"
     d="m 417.2594,726.75657 a 15.80861,44.218192 81.731948 1 1 -87.3759,13.49696 15.80861,44.218192 81.731948 1 1 87.3759,-13.49696 z" />
  <path
     inkscape:connector-curvature="0"
     style="fill:url(#linearGradient4606);fill-opacity:1;fill-rule:evenodd;stroke:none"
     id="path1354"
     d="m 372.7463,735.2352 c -5.93553,3.64917 -15.4087,17.30853 -18.18275,24.24365 -1.54331,3.85828 -9.09173,5.05094 -13.13199,7.07107 -7.94847,3.97424 -3.73943,11.11168 4.04062,11.11168 10.3626,0 20.27452,0.0143 30.30457,2.02031 7.56478,1.51295 15.43276,1.01015 23.23351,1.01015 7.9438,0 8.9786,-5.27632 7.07107,-9.09137 -1.7358,-3.47161 -10.95567,-7.76919 -13.13199,-12.12184 -2.06564,-4.13127 -1.89532,-18.34154 -7.07106,-22.22335 -0.38095,-0.28571 -6.7176,-5.96386 -13.13198,-2.0203 z" />
  <path
     inkscape:connector-curvature="0"
     style="fill:url(#linearGradient4603);fill-opacity:1;fill-rule:evenodd;stroke:none"
     id="path2124"
     d="m 372.7463,735.2352 c -5.93553,3.64917 -15.4087,17.30853 -18.18275,24.24365 -1.54331,3.85828 -9.09173,5.05094 -13.13199,7.07107 -7.94847,3.97424 -3.73943,11.11168 4.04062,11.11168 10.3626,0 20.27452,0.0143 30.30457,2.02031 7.56478,1.51295 15.43276,1.01015 23.23351,1.01015 7.9438,0 8.9786,-5.27632 7.07107,-9.09137 -1.7358,-3.47161 -10.95567,-7.76919 -13.13199,-12.12184 -2.06564,-4.13127 -1.89532,-18.34154 -7.07106,-22.22335 -0.38095,-0.28571 -6.7176,-5.96386 -13.13198,-2.0203 z" />
  <path
     inkscape:connector-curvature="0"
     style="opacity:0.46759255;fill:url(#linearGradient4600);fill-opacity:1;fill-rule:evenodd;stroke:none"
     id="path2138"
     d="m 372.7463,735.2352 c -5.93553,3.64917 -15.4087,17.30853 -18.18275,24.24365 -1.54331,3.85828 -9.09173,5.05094 -13.13199,7.07107 -7.94847,3.97424 -3.73943,11.11168 4.04062,11.11168 10.3626,0 20.27452,0.0143 30.30457,2.02031 7.56478,1.51295 15.43276,1.01015 23.23351,1.01015 7.9438,0 8.9786,-5.27632 7.07107,-9.09137 -1.7358,-3.47161 -10.95567,-7.76919 -13.13199,-12.12184 -2.06564,-4.13127 -1.89532,-18.34154 -7.07106,-22.22335 -0.38095,-0.28571 -6.7176,-5.96386 -13.13198,-2.0203 z" />
  <path
     inkscape:connector-curvature="0"
     style="opacity:0.50925927;fill:url(#linearGradient4597);fill-opacity:1;fill-rule:evenodd;stroke:none"
     id="path2142"
     d="m 372.7463,735.2352 c -5.93553,3.64917 -15.4087,17.30853 -18.18275,24.24365 -1.54331,3.85828 -9.09173,5.05094 -13.13199,7.07107 -7.94847,3.97424 -3.73943,11.11168 4.04062,11.11168 10.3626,0 20.27452,0.0143 30.30457,2.02031 7.56478,1.51295 15.43276,1.01015 23.23351,1.01015 7.9438,0 8.9786,-5.27632 7.07107,-9.09137 -1.7358,-3.47161 -10.95567,-7.76919 -13.13199,-12.12184 -2.06564,-4.13127 -1.89532,-18.34154 -7.07106,-22.22335 -0.38095,-0.28571 -6.7176,-5.96386 -13.13198,-2.0203 z" />
  <path
     inkscape:connector-curvature="0"
     style="opacity:0.67592594;fill:url(#radialGradient4594);fill-opacity:1;fill-rule:evenodd;stroke:none"
     id="path2146"
     d="m 358.60416,766.35602 c 3.38261,0.43801 11.26558,-0.30613 16.5762,-1.53786 4.49476,-1.0425 7.2171,-1.31315 9.94572,-3.84464 3.94822,-3.66294 3.84241,-0.52886 9.11692,1.895 2.93029,3.12865 7.17619,2.08277 10.14682,8.10106 2.93029,2.71857 -11.80444,0 -15.94849,0 -4.45201,0 -8.29972,-0.76893 -12.43215,-0.76893 -2.85089,0 -8.66562,-1.04872 -10.77454,-1.53785 -3.28182,-0.76117 -1.58593,-1.37077 -6.63048,-2.30678 z" />
  <path
     inkscape:connector-curvature="0"
     style="opacity:0.46759255;fill:url(#radialGradient4591);fill-opacity:1;fill-rule:evenodd;stroke:none"
     id="path2161"
     d="m 389.44321,743.79436 a 8.5714289,4.2782749 69.89064 1 1 -8.03493,2.94186 8.5714289,4.2782749 69.89064 1 1 8.03493,-2.94186 z" />
</svg>
